<svg role="img" viewBox="0 0 24 24" xmlns="http://www.w3.org/2000/svg" aria-labelledby="color-scheme-light"><path d="M12 18c-3.309 0-6-2.691-6-6s2.691-6 6-6 6 2.691 6 6-2.691 6-6 6zm0-10c-2.206 0-4 1.794-4 4s1.794 4 4 4 4-1.794 4-4-1.794-4-4-4zm0-4a1 1 0 0 1-1-1V1a1 1 0 0 1 2 0v2a1 1 0 0 1-1 1zm0 20a1 1 0 0 1-1-1v-2a1 1 0 1 1 2 0v2a1 1 0 0 1-1 1zM5.64 6.64a.997.997 0 0 1-.707-.293l-1.42-1.42a.999.999 0 1 1 1.414-1.414l1.42 1.42A.999.999 0 0 1 5.64 6.64zm14.139 14.139a.997.997 0 0 1-.707-.293l-1.42-1.42a.999.999 0 1 1 1.414-1.414l1.42 1.42a.999.999 0 0 1-.707 1.707zM3 13H1a1 1 0 1 1 0-2h2a1 1 0 0 1 0 2zm20 0h-2a1 1 0 1 1 0-2h2a1 1 0 1 1 0 2zM4.22 20.779a.999.999 0 0 1-.707-1.707l1.42-1.42a.999.999 0 1 1 1.414 1.414l-1.42 1.42a.993.993 0 0 1-.707.293zM18.359 6.64a.999.999 0 0 1-.707-1.707l1.42-1.42a.999.999 0 1 1 1.414 1.414l-1.42 1.42a.997.997 0 0 1-.707.293z"></path></svg>