<svg width="16" height="16" viewBox="0 0 16 16" fill="none" xmlns="http://www.w3.org/2000/svg">
 <style>
    @media (prefers-color-scheme: dark) {
      path { fill: #66d9e8; }
      rect { fill: #212529; }
    }
</style>
<rect width="16" height="16" rx="8" fill="#f8f9fa"/>
<path d="M5.058 9.538C5.224 9.538 5.367 9.519 5.487 9.481C5.607 9.443 5.705 9.39 5.781 9.322C5.859 9.252 5.916 9.17 5.952 9.076C5.988 8.98 6.006 8.875 6.006 8.761C6.006 8.539 5.927 8.364 5.769 8.236C5.611 8.106 5.374 8.041 5.058 8.041H4.128V9.538H5.058ZM4.128 6.16V7.627H4.896C5.06 7.627 5.202 7.609 5.322 7.573C5.444 7.537 5.544 7.487 5.622 7.423C5.702 7.359 5.761 7.282 5.799 7.192C5.837 7.1 5.856 7 5.856 6.892C5.856 6.638 5.78 6.453 5.628 6.337C5.476 6.219 5.24 6.16 4.92 6.16H4.128ZM4.92 5.701C5.184 5.701 5.411 5.727 5.601 5.779C5.793 5.831 5.95 5.905 6.072 6.001C6.196 6.097 6.287 6.215 6.345 6.355C6.403 6.493 6.432 6.649 6.432 6.823C6.432 6.929 6.415 7.031 6.381 7.129C6.349 7.225 6.3 7.315 6.234 7.399C6.168 7.483 6.084 7.559 5.982 7.627C5.882 7.693 5.764 7.747 5.628 7.789C5.944 7.849 6.181 7.962 6.339 8.128C6.499 8.292 6.579 8.508 6.579 8.776C6.579 8.958 6.545 9.124 6.477 9.274C6.411 9.424 6.313 9.553 6.183 9.661C6.055 9.769 5.897 9.853 5.709 9.913C5.521 9.971 5.307 10 5.067 10H3.549V5.701H4.92ZM7.21191 9.67C7.21191 9.618 7.22091 9.569 7.23891 9.523C7.25891 9.477 7.28491 9.437 7.31691 9.403C7.35091 9.369 7.39091 9.342 7.43691 9.322C7.48291 9.302 7.53191 9.292 7.58391 9.292C7.63591 9.292 7.68491 9.302 7.73091 9.322C7.77691 9.342 7.81691 9.369 7.85091 9.403C7.88491 9.437 7.91191 9.477 7.93191 9.523C7.95191 9.569 7.96191 9.618 7.96191 9.67C7.96191 9.724 7.95191 9.774 7.93191 9.82C7.91191 9.864 7.88491 9.903 7.85091 9.937C7.81691 9.971 7.77691 9.997 7.73091 10.015C7.68491 10.035 7.63591 10.045 7.58391 10.045C7.53191 10.045 7.48291 10.035 7.43691 10.015C7.39091 9.997 7.35091 9.971 7.31691 9.937C7.28491 9.903 7.25891 9.864 7.23891 9.82C7.22091 9.774 7.21191 9.724 7.21191 9.67ZM12.3289 5.701V10H12.0379C11.9919 10 11.9529 9.992 11.9209 9.976C11.8909 9.96 11.8609 9.933 11.8309 9.895L9.34388 6.655C9.34788 6.705 9.35088 6.754 9.35288 6.802C9.35488 6.85 9.35588 6.895 9.35588 6.937V10H8.84588V5.701H9.14588C9.17188 5.701 9.19388 5.703 9.21188 5.707C9.22988 5.709 9.24588 5.714 9.25988 5.722C9.27388 5.728 9.28788 5.738 9.30188 5.752C9.31588 5.764 9.33088 5.78 9.34688 5.8L11.8339 9.037C11.8299 8.985 11.8259 8.935 11.8219 8.887C11.8199 8.837 11.8189 8.79 11.8189 8.746V5.701H12.3289Z" fill="#15AABF"/>
</svg>
